<?xml version="1.0" standalone="no"?>
<!DOCTYPE svg PUBLIC "-//W3C//DTD SVG 20010904//EN"
 "http://www.w3.org/TR/2001/REC-SVG-20010904/DTD/svg10.dtd">
<svg version="1.0" xmlns="http://www.w3.org/2000/svg"
 width="320.000000pt" height="320.000000pt" viewBox="0 0 320.000000 320.000000"
 preserveAspectRatio="xMidYMid meet">
<metadata>
Created by potrace 1.14, written by Peter Selinger 2001-2017
</metadata>
<g transform="translate(0.000000,320.000000) scale(0.100000,-0.100000)"
fill="#000000" stroke="none">
<path d="M0 1600 l0 -1600 698 1 c383 1 686 4 672 6 -78 13 -246 58 -321 86
-85 31 -86 32 -99 75 -8 26 -11 71 -8 113 7 87 31 119 89 119 33 0 41 5 54 30
13 26 21 30 56 30 l41 0 -16 24 c-14 22 -14 26 0 40 14 14 18 14 47 -1 41 -21
149 -23 169 -2 18 19 48 83 48 104 0 9 14 72 31 141 27 109 29 129 19 155 -13
31 -4 138 21 249 6 25 14 65 18 90 5 25 14 59 20 75 8 19 14 105 17 240 4 232
18 424 31 434 4 3 18 37 31 75 l23 68 -26 38 c-19 27 -36 40 -61 44 -31 6 -34
10 -36 44 -2 51 -2 55 -12 70 -5 8 -4 18 3 25 6 6 11 20 11 32 0 12 6 27 12
33 10 10 10 17 0 32 -21 34 -14 55 30 83 82 53 180 31 232 -52 29 -45 25 -76
-19 -153 -38 -66 -34 -94 24 -149 47 -45 75 -92 100 -169 6 -19 20 -62 31 -96
44 -138 47 -278 11 -421 -6 -23 -12 -66 -13 -95 -1 -37 -7 -60 -21 -75 -11
-13 -21 -42 -24 -70 -2 -26 -7 -55 -10 -63 -4 -8 -8 -85 -9 -170 -2 -114 1
-172 12 -219 13 -52 14 -98 8 -251 -6 -161 -4 -191 9 -210 13 -19 15 -53 4
-102 -1 -6 17 -17 39 -25 23 -7 59 -31 80 -52 76 -75 98 -100 94 -104 -8 -8
-119 -37 -209 -57 l-86 -19 693 0 692 -1 0 1600 0 1600 -1600 0 -1600 0 0
-1600z"/>
<path d="M1633 843 c-7 -2 -13 -20 -13 -38 0 -48 -24 -113 -86 -239 -44 -87
-54 -118 -54 -158 l0 -50 83 7 c90 7 169 28 187 50 22 26 10 240 -21 383 -11
51 -11 52 -47 51 -20 0 -43 -3 -49 -6z"/>
</g>
</svg>
